<?xml version="1.0" encoding="UTF-8"?>
<svg xmlns="http://www.w3.org/2000/svg" version="1.1" viewBox="0 0 478.554 220.329">
  <!-- Generator: Adobe Illustrator 29.8.7, SVG Export Plug-In . SVG Version: 2.1.1 Build 1)  -->
  <defs>
    <style>
      .st0 {
        fill: #e64b00;
      }

      .st0, .st1, .st2 {
        fill-rule: evenodd;
      }

      .st1, .st3 {
        fill: #f0aa00;
      }

      .st4 {
        fill: none;
        stroke: #322d2d;
        stroke-miterlimit: 10;
        stroke-width: .5px;
      }

      .st5 {
        fill: #381a0a;
      }

      .st2 {
        fill: #322d2d;
      }

      .st6 {
        fill: #00e8ff;
      }

      .st7 {
        display: none;
      }
    </style>
  </defs>
  <g id="DOMITYS">
    <g>
      <path class="st2" d="M273.866,95.645l-12.746-15.773v29.273h-8.402v-42.969h8.322l12.826,16.615,12.826-16.615h8.322v42.969h-8.4v-29.273l-12.748,15.773ZM361.377,66.176h10.064l9,16.629,9-16.629h10.064l-14.834,25.295v17.674h-8.463v-17.674l-14.832-25.295ZM317.606,66.176v42.969h-8.404v-42.969h8.404ZM325.479,74.039v-7.863h32.785v7.863h-12.16v35.105h-8.465v-35.105h-12.16ZM401.594,102.805l5.07-6.137.4.344c4.002,3.404,7.939,5.285,13.021,5.242,4.465-.039,6.932-2.084,6.908-4.842-.023-2.693-1.285-4.234-9.172-5.982-9.004-2.092-14.48-4.787-14.553-12.971-.066-7.717,6.232-12.928,14.809-13.002,6.266-.055,11.275,1.812,15.676,5.281l.385.303-4.514,6.477-.43-.314c-3.758-2.754-7.459-4.17-11.172-4.137-4.185.035-6.33,2.17-6.309,4.535.025,2.918,1.49,4.283,9.656,6.158,8.978,2.101,14.002,5.353,14.066,12.734.074,8.396-6.43,13.289-15.467,13.367-6.572.059-12.801-2.162-17.998-6.723l-.379-.334ZM221.176,65.457c13.174,0,22.385,10.004,22.385,22.082,0,12.199-9.331,22.324-22.504,22.324s-22.383-10.004-22.383-22.084c0-12.199,9.328-22.322,22.502-22.322ZM221.057,73.26c-8.006,0-13.621,6.383-13.621,14.279,0,8.02,5.734,14.521,13.74,14.521s13.623-6.383,13.623-14.281c0-8.018-5.736-14.52-13.742-14.52ZM160.354,73.92l.01,26.18-8.381-8.381-.008-25.543h16.791c13.441,0,22.805,9.254,22.805,21.363s-9.383,21.6-22.168,21.6l-7.738-7.738h7.102c8.527,0,14.041-5.705,14.041-13.621,0-8.043-5.519-13.859-14.041-13.859h-8.412Z"/>
      <g>
        <path class="st1" d="M102.4,49.637l23.285,23.303c-4.213-4.207-10.039-6.822-16.463-6.824h-42.967l-23.291-23.15h42.936c6.441,0,12.285,2.445,16.5,6.672Z"/>
        <polygon class="st0" points="42.965 42.965 66.256 66.115 66.256 107.508 42.965 84.201 42.965 42.965"/>
        <path class="st3" d="M67.826,109.08h41.396v3.613c.006,10.369-8.043,18.824-18.232,19.531l-23.164-23.145Z"/>
        <path class="st0" d="M109.223,66.115c12.861,0,23.279,10.412,23.279,23.275,0,6.443-2.594,12.252-6.824,16.467l-19.598,19.611c-3.678,3.688-8.604,6.104-14.074,6.66,9.703-1.18,17.223-9.414,17.217-19.435v-46.578Z"/>
      </g>
    </g>
  </g>
  <g id="ALM_2026">
    <g>
      <g>
        <path class="st6" d="M168.907,128.488l-9.893,6.326,19.693,19.697,8.111-8.113-17.91-17.91ZM156.596,160.4l9.587,3.956-6.771-6.77-2.816,2.814Z"/>
        <path class="st5" d="M178.706,135.211l2.816-2.814-9.587-3.956,6.771,6.77ZM151.3,146.399l17.91,17.91,9.893-6.326-19.693-19.697-8.111,8.113Z"/>
      </g>
      <g>
        <path class="st5" d="M421.052,151.763h-8.724v-14.576c0-.19-.082-.271-.271-.271h-3.902c-.189,0-.271.082-.271.271v18.424c0,.189.082.271.271.271h12.897c.19,0,.271-.082.271-.271v-3.576c0-.189-.082-.271-.271-.271Z"/>
        <path class="st5" d="M400.461,137.187c-.053-.162-.162-.271-.405-.271h-3.956c-.244,0-.352.109-.406.271l-6.422,18.261c-.108.298,0,.433.271.433h3.902c.216,0,.27-.082.324-.271l1.327-4.226h5.961l1.327,4.226c.054.189.109.271.326.271h3.901c.271,0,.38-.135.271-.433l-6.422-18.261ZM396.316,147.482l1.761-5.636,1.761,5.636h-3.522Z"/>
        <path class="st5" d="M293.903,137.187c-.054-.162-.163-.271-.407-.271h-3.955c-.244,0-.353.109-.406.271l-6.422,18.261c-.108.298,0,.433.271.433h3.902c.217,0,.27-.082.324-.271l1.327-4.226h5.961l1.328,4.226c.054.189.109.271.326.271h3.901c.271,0,.38-.135.271-.433l-6.421-18.261ZM289.757,147.482l1.761-5.636,1.761,5.636h-3.522Z"/>
        <path class="st5" d="M435.168,151.872h-8.399v-3.956h7.18c.191,0,.271-.081.271-.27v-3.468c0-.19-.081-.271-.271-.271h-7.18v-2.981h7.993c.189,0,.271-.081.271-.27v-3.468c0-.19-.082-.271-.271-.271h-12.165c-.189,0-.271.082-.271.271v18.424c0,.189.082.271.271.271h12.571c.189,0,.271-.082.271-.271v-3.467c0-.191-.082-.271-.271-.271Z"/>
        <path class="st5" d="M281.412,151.762h-8.724v-14.576c0-.189-.082-.271-.271-.271h-3.901c-.191,0-.271.082-.271.271v18.424c0,.189.081.271.271.271h12.896c.191,0,.271-.082.271-.271v-3.576c0-.189-.081-.271-.271-.271Z"/>
        <path class="st5" d="M372.419,136.916h-5.69c-.19,0-.27.082-.27.271v18.424c0,.189.081.271.27.271h5.69c5.69,0,9.618-2.981,9.618-9.483s-3.928-9.483-9.618-9.483ZM372.528,151.763h-1.626v-10.729h1.626c3.143,0,5.011,1.49,5.011,5.364s-1.869,5.364-5.011,5.364Z"/>
        <path class="st5" d="M363.587,136.916h-3.847c-.189,0-.271.082-.271.271v11.867l-7.018-11.921c-.082-.162-.244-.217-.433-.217h-3.982c-.191,0-.271.082-.271.271v18.424c0,.189.081.271.271.271h3.847c.189,0,.27-.082.27-.271v-11.867l7.018,11.921c.082.162.244.217.433.217h3.984c.189,0,.27-.082.27-.271v-18.424c0-.19-.081-.271-.27-.271Z"/>
        <path class="st5" d="M384.098,136.916h3.902c.149,0,.27.121.27.27v18.425c0,.15-.122.271-.271.271h-3.901c-.15,0-.271-.122-.271-.271v-18.424c0-.15.122-.271.271-.271Z"/>
        <path class="st5" d="M336.466,136.645c-4.904,0-9.509,3.17-9.509,9.754s4.605,9.754,9.509,9.754,9.51-3.17,9.51-9.754-4.605-9.754-9.51-9.754ZM336.466,152.034c-2.844,0-4.849-1.95-4.849-5.636s2.005-5.636,4.849-5.636,4.85,1.95,4.85,5.636-2.005,5.636-4.85,5.636Z"/>
        <path class="st5" d="M324.898,136.916h-3.929c-.19,0-.352.082-.433.271l-4.66,10.512-4.661-10.512c-.081-.19-.244-.271-.433-.271h-3.928c-.19,0-.271.082-.271.271v18.424c0,.189.082.271.271.271h3.711c.189,0,.271-.082.271-.271v-10.918l3.252,7.721c.081.191.217.298.379.298h2.817c.163,0,.298-.108.38-.298l3.251-7.721v10.918c0,.189.082.271.271.271h3.712c.189,0,.27-.082.27-.271v-18.424c0-.19-.081-.271-.27-.271Z"/>
      </g>
      <g>
        <path class="st5" d="M228.932,145.477h-8.345c-.189,0-.271.082-.271.271v3.252c0,.189.082.27.271.27h4.335v1.003c-.814,1.192-1.978,1.761-3.984,1.761-2.546,0-4.795-1.896-4.795-5.636s2.249-5.636,4.633-5.636c1.761,0,3.089.623,3.766,2.222.082.191.163.271.326.271h3.82c.217,0,.326-.054.298-.271-.461-3.739-3.549-6.339-8.21-6.339-5.013,0-9.294,3.251-9.294,9.753s4.281,9.754,9.456,9.754c3.658,0,6.422-1.544,7.939-4.199.217-.38.326-.732.326-1.274v-4.931c0-.189-.082-.271-.271-.271Z"/>
        <path class="st5" d="M243.834,151.762h-6.964l3.82-3.576c1.979-1.869,2.953-3.467,2.953-5.825,0-3.332-2.329-5.716-6.421-5.716-4.173,0-6.557,3.169-6.557,6.313,0,.297.135.406.326.406h3.603c.243,0,.379-.082.406-.406.108-1.301.867-2.195,2.222-2.195,1.273,0,2.032.677,2.032,1.843s-.623,2.032-1.897,3.252l-6.366,6.069c-.191.162-.298.352-.298.623v3.061c0,.19.081.271.271.271h12.87c.189,0,.27-.082.27-.271v-3.576c0-.189-.081-.271-.27-.271Z"/>
        <path class="st5" d="M205.414,137.184c-.053-.162-.162-.271-.406-.271h-3.955c-.244,0-.353.109-.406.271l-6.422,18.261c-.109.298,0,.433.271.433h3.901c.218,0,.271-.082.326-.271l1.327-4.226h5.961l1.327,4.226c.054.19.108.271.324.271h3.902c.271,0,.379-.135.271-.433l-6.422-18.261ZM201.269,147.48l1.761-5.636,1.761,5.636h-3.522Z"/>
        <path class="st5" d="M260.848,155.61l-3.549-8.047c1.95-.894,2.844-2.6,2.844-4.985,0-3.576-2.032-5.663-6.557-5.663h-7.044c-.191,0-.271.082-.271.271v18.424c0,.19.081.271.271.271h3.901c.189,0,.271-.082.271-.271v-7.369h2.005l3.143,7.369c.082.19.19.271.38.271h4.389c.217,0,.298-.108.217-.271ZM253.534,144.122h-2.818v-3.088h2.818c1.462,0,2.058.515,2.058,1.544s-.596,1.544-2.058,1.544Z"/>
      </g>
    </g>
  </g>
  <g id="filet" class="st7">
    <line class="st4" x1="151.546" y1="118.689" x2="435.439" y2="118.689"/>
  </g>
</svg>